
<svg id="visual" viewBox="0 0 960 540" width="960" height="540" xmlns="http://www.w3.org/2000/svg" xmlns:xlink="http://www.w3.org/1999/xlink" version="1.1" opacity="0.3"><path d="M805 540L959 540L959 463L863 463L863 386L882 386L882 309L892 309L892 231L949 231L949 154L796 154L796 77L844 77L844 0L960 0L960 77L960 77L960 154L960 154L960 231L960 231L960 309L960 309L960 386L960 386L960 463L960 463L960 540L960 540Z" fill="#e3d4b7"></path><path d="M767 540L959 540L959 463L796 463L796 386L777 386L777 309L853 309L853 231L901 231L901 154L748 154L748 77L738 77L738 0L845 0L845 77L797 77L797 154L950 154L950 231L893 231L893 309L883 309L883 386L864 386L864 463L960 463L960 540L806 540Z" fill="#e3c8a0"></path><path d="M690 540L709 540L709 463L671 463L671 386L594 386L594 309L604 309L604 231L729 231L729 154L537 154L537 77L671 77L671 0L739 0L739 77L749 77L749 154L902 154L902 231L854 231L854 309L778 309L778 386L797 386L797 463L960 463L960 540L768 540Z" fill="#e3bc89"></path><path d="M690 540L661 540L661 463L623 463L623 386L556 386L556 309L537 309L537 231L700 231L700 154L537 154L537 77L633 77L633 0L672 0L672 77L538 77L538 154L730 154L730 231L605 231L605 309L595 309L595 386L672 386L672 463L710 463L710 540L691 540Z" fill="#e5af74"></path><path d="M508 540L613 540L613 463L604 463L604 386L297 386L297 309L258 309L258 231L431 231L431 154L431 154L431 77L498 77L498 0L634 0L634 77L538 77L538 154L701 154L701 231L538 231L538 309L557 309L557 386L624 386L624 463L662 463L662 540L691 540Z" fill="#e7a161"></path><path d="M450 540L613 540L613 463L517 463L517 386L277 386L277 309L220 309L220 231L325 231L325 154L412 154L412 77L450 77L450 0L499 0L499 77L432 77L432 154L432 154L432 231L259 231L259 309L298 309L298 386L605 386L605 463L614 463L614 540L509 540Z" fill="#e99150"></path><path d="M383 540L594 540L594 463L460 463L460 386L191 386L191 309L201 309L201 231L220 231L220 154L325 154L325 77L402 77L402 0L451 0L451 77L413 77L413 154L326 154L326 231L221 231L221 309L278 309L278 386L518 386L518 463L614 463L614 540L451 540Z" fill="#ec8041"></path><path d="M249 540L249 540L249 463L143 463L143 386L133 386L133 309L153 309L153 231L66 231L66 154L153 154L153 77L143 77L143 0L403 0L403 77L326 77L326 154L221 154L221 231L202 231L202 309L192 309L192 386L461 386L461 463L595 463L595 540L384 540Z" fill="#ee6d36"></path><path d="M95 540L28 540L28 463L18 463L18 386L76 386L76 309L76 309L76 231L37 231L37 154L57 154L57 77L76 77L76 0L144 0L144 77L154 77L154 154L67 154L67 231L154 231L154 309L134 309L134 386L144 386L144 463L250 463L250 540L250 540Z" fill="#f1572e"></path><path d="M0 540L0 540L0 463L0 463L0 386L0 386L0 309L0 309L0 231L0 231L0 154L0 154L0 77L0 77L0 0L77 0L77 77L58 77L58 154L38 154L38 231L77 231L77 309L77 309L77 386L19 386L19 463L29 463L29 540L96 540Z" fill="#f33a2a"></path></svg>